<svg width="65" height="59" viewBox="0 0 65 59" fill="none" xmlns="http://www.w3.org/2000/svg">
<path d="M32.5276 52.8399C46.507 52.8399 57.8396 42.355 57.8396 29.4213C57.8396 16.4875 46.507 6.00262 32.5276 6.00262C18.5481 6.00262 7.21548 16.4875 7.21548 29.4213C7.21548 42.355 18.5481 52.8399 32.5276 52.8399Z" fill="#8D00EE"/>
<path d="M43.6535 18.6106H21.4016C20.6604 18.6114 19.9498 18.8841 19.4257 19.369C18.9016 19.854 18.6068 20.5114 18.6059 21.1972V33.3626C18.6068 34.0484 18.9016 34.7058 19.4257 35.1907C19.9498 35.6756 20.6604 35.9484 21.4016 35.9492H30.6311V39.9128H28.2308C27.5211 39.9129 26.8311 40.1295 26.2678 40.529C25.7045 40.9286 25.2993 41.4888 25.1149 42.1229L24.9415 42.7201H40.113L39.9396 42.1229C39.7552 41.4888 39.35 40.9286 38.7867 40.529C38.2234 40.1295 37.5334 39.9129 36.8237 39.9128H34.4234V35.9492H43.6529C44.3941 35.9484 45.1047 35.6756 45.6288 35.1907C46.1529 34.7058 46.4477 34.0484 46.4486 33.3626V21.1972C46.4479 20.5115 46.1532 19.854 45.6292 19.3691C45.1052 18.8842 44.3946 18.6114 43.6535 18.6106ZM44.3977 33.3626C44.3977 33.7426 44.0642 34.0511 43.6535 34.0511H21.4016C21.2043 34.0509 21.0151 33.9784 20.8756 33.8493C20.7361 33.7202 20.6576 33.5451 20.6575 33.3626V21.1972C20.6575 20.8172 20.991 20.5087 21.4016 20.5087H43.6535C44.0642 20.5087 44.3977 20.8172 44.3977 21.1972V33.3626Z" fill="white"/>
<path d="M38.6202 27.2797L36.2567 30.3124L37.3552 31.046L40.2927 27.2797L37.3552 23.5134L36.2567 24.247L38.6202 27.2797Z" fill="white"/>
<path d="M28.7985 24.247L27.6999 23.5134L24.7625 27.2797L27.6999 31.046L28.7985 30.3124L26.4349 27.2797L28.7985 24.247Z" fill="white"/>
<path d="M30.1774 31.6523L33.5986 22.4988L34.8808 22.909L31.4597 32.0626L30.1774 31.6523Z" fill="white"/>
</svg>
